<svg width="32" height="32" viewBox="0 0 32 32" fill="none" xmlns="http://www.w3.org/2000/svg">
  <rect width="32" height="32" rx="6" fill="#2563EB"/>
  <!-- Tooth crown -->
  <path d="M10 10C10 10 10 8 16 8C22 8 22 10 22 10C22 10 22 14 20 14C20 14 20 12 18 12C18 12 18 14 16 14C16 14 16 12 14 12C14 12 14 14 12 14C12 14 10 14 10 10Z" fill="white"/>
  <!-- Tooth body -->
  <path d="M16 14C16 14 14 16 14 20C14 22 15 23 16 23C17 23 18 22 18 20C18 16 16 14 16 14Z" fill="white"/>
  <!-- Tooth roots -->
  <path d="M16 23C16 23 14 25 14 26C14 26.5 14.5 27 15 27C15.5 27 16 26.5 16 26C16 25 16 23 16 23Z" fill="white"/>
  <path d="M16 23C16 23 18 25 18 26C18 26.5 17.5 27 17 27C16.5 27 16 26.5 16 26C16 25 16 23 16 23Z" fill="white"/>
</svg>
